<?xml version="1.0" standalone="no"?>
<!DOCTYPE svg PUBLIC "-//W3C//DTD SVG 20010904//EN"
 "http://www.w3.org/TR/2001/REC-SVG-20010904/DTD/svg10.dtd">
<svg version="1.0" xmlns="http://www.w3.org/2000/svg"
 width="448.000000pt" height="448.000000pt" viewBox="0 0 448.000000 448.000000"
 preserveAspectRatio="xMidYMid meet">

<g transform="translate(0.000000,448.000000) scale(0.100000,-0.100000)"
fill="#000000" stroke="none">
<path d="M460 3903 c-94 -34 -180 -154 -180 -253 0 -99 71 -214 164 -263 l41
-22 1755 0 1755 0 41 22 c133 71 190 199 150 338 -14 45 -29 69 -70 110 -92
93 76 85 -1885 84 -1546 0 -1731 -2 -1771 -16z"/>
<path d="M460 2503 c-66 -24 -144 -106 -164 -173 -33 -113 -11 -206 68 -285
93 -93 -84 -86 1891 -83 l1740 3 50 27 c124 65 180 198 141 333 -14 45 -29 69
-70 110 -92 93 76 85 -1885 84 -1546 0 -1731 -2 -1771 -16z"/>
<path d="M460 1103 c-64 -23 -142 -105 -165 -172 -42 -128 22 -275 150 -344
l40 -22 1755 0 1755 0 41 22 c133 71 190 199 150 338 -14 45 -29 69 -70 110
-92 93 76 85 -1885 84 -1546 0 -1731 -2 -1771 -16z"/>
</g>
</svg>
