<svg xmlns="http://www.w3.org/2000/svg" width="48.002" height="47.999" viewBox="0 0 48.002 47.999">
  <g>
    <path d="M48,22.2a3.521,3.521,0,0,0-1.26-2.814A4.259,4.259,0,0,0,47.748,16.5a3.693,3.693,0,0,0-3.412-3.759H34.942a19,19,0,0,0,.368-5.628c-.371-4.145-2.364-7-4.959-7.1a6.231,6.231,0,0,0-3.31.49.728.728,0,0,0-.334.766c.379,1.861.847,5.226.491,6.328-.764,2.363-2.63,4.445-4.275,6.282-1.358,1.516-2.468,2.766-2.808,3.963H13.58a.729.729,0,0,0-.728.727V35.46a.729.729,0,0,0,.728.727H41.345a2.052,2.052,0,0,0,.276-.02A4.07,4.07,0,0,0,45.314,32.1a4.121,4.121,0,0,0-.177-1.186,4.1,4.1,0,0,0,2.417-3.721,4.051,4.051,0,0,0-.652-2.207A4.105,4.105,0,0,0,48,22.2ZM20,34.73H14.309V19.294H20ZM45.482,24.312a.728.728,0,0,0-.1,1.083,2.619,2.619,0,0,1-1.368,4.365.727.727,0,0,0-.487,1.06A2.672,2.672,0,0,1,43.86,32.1a2.628,2.628,0,0,1-2.406,2.621,1,1,0,0,1-.109.01H21.451V18.566c0-.869,1.241-2.254,2.555-3.719,1.656-1.848,3.718-4.147,4.576-6.8.486-1.506-.062-4.973-.329-6.439a7.932,7.932,0,0,1,2.039-.139c1.774.07,3.275,2.5,3.568,5.78a17.412,17.412,0,0,1-.548,6.028.726.726,0,0,0,.7.924H44.334A2.233,2.233,0,0,1,46.292,16.5c0,1.631-.926,2.264-1.167,2.287a.728.728,0,0,0,0,1.456c.6,0,1.42.682,1.42,1.959A2.594,2.594,0,0,1,45.482,24.312Z" fill="#1a171b"/>
    <path d="M37.408,39.307a.733.733,0,0,0-.865.555l-.6,2.756a1.4,1.4,0,0,1-1.786,1.029L30.55,42.5a2.86,2.86,0,0,0-2.972.8l-2.546,2.8a1.429,1.429,0,0,1-2.063,0l-2.547-2.8a2.852,2.852,0,0,0-2.971-.8l-3.6,1.146a1.395,1.395,0,0,1-1.785-1.029l-.809-3.695a2.86,2.86,0,0,0-2.175-2.176L5.384,35.94a1.4,1.4,0,0,1-1.031-1.787l1.148-3.6a2.862,2.862,0,0,0-.8-2.973L1.909,25.031a1.393,1.393,0,0,1,0-2.06l2.8-2.547a2.86,2.86,0,0,0,.8-2.971l-1.148-3.6a1.395,1.395,0,0,1,1.031-1.787l3.7-.808a2.863,2.863,0,0,0,2.175-2.176l.808-3.693a1.394,1.394,0,0,1,1.785-1.031l3.6,1.146a2.85,2.85,0,0,0,2.971-.8l2.548-2.8a1.321,1.321,0,0,1,.114-.111A.727.727,0,0,0,22.13.7,2.844,2.844,0,0,0,21.9.93l-2.548,2.8a1.393,1.393,0,0,1-1.454.39l-3.6-1.147a2.851,2.851,0,0,0-3.648,2.106L9.834,8.767A1.4,1.4,0,0,1,8.769,9.833l-3.694.808A2.849,2.849,0,0,0,2.969,14.29l1.147,3.6a1.4,1.4,0,0,1-.39,1.455L.93,21.894a2.849,2.849,0,0,0,0,4.212l2.8,2.545a1.4,1.4,0,0,1,.39,1.457l-1.147,3.6a2.849,2.849,0,0,0,2.106,3.648l3.694.809a1.4,1.4,0,0,1,1.064,1.064l.808,3.7a2.852,2.852,0,0,0,3.648,2.1l3.6-1.146a1.389,1.389,0,0,1,1.453.389l2.548,2.8a2.847,2.847,0,0,0,4.21,0l2.547-2.8a1.4,1.4,0,0,1,1.456-.389l3.6,1.146a2.852,2.852,0,0,0,3.648-2.1l.6-2.756A.722.722,0,0,0,37.408,39.307Z" fill="#1a171b"/>
    <circle cx="17.153" cy="31.886" r="0.728" fill="#1a171b"/>
  </g>
</svg>
