<?xml version="1.0" encoding="utf-8"?>
<!-- Generator: Adobe Illustrator 16.0.0, SVG Export Plug-In . SVG Version: 6.00 Build 0)  -->
<!DOCTYPE svg PUBLIC "-//W3C//DTD SVG 1.1//EN" "http://www.w3.org/Graphics/SVG/1.1/DTD/svg11.dtd">
<svg version="1.1" id="Layer_1" xmlns="http://www.w3.org/2000/svg" xmlns:xlink="http://www.w3.org/1999/xlink" x="0px" y="0px"
	 width="128px" height="128px" viewBox="0 0 128 128" enable-background="new 0 0 128 128" xml:space="preserve">
<g>
	<g>
		<g>
			<g>
				<path fill="#282D33" d="M76.381,126h-4v-18.936h22.471c6.023,0,10.926-4.811,10.926-10.723V75.718h9.643l-14.027-23.912
					l0.027-0.59c0.029-0.681,0.055-1.36,0.055-2.045C101.475,24.264,80.863,4,55.531,4C30.201,4,9.593,24.264,9.593,49.171
					c0,12.042,4.764,23.368,13.413,31.894l0.596,0.588V126h-4V83.316C10.562,74.104,5.593,62.012,5.593,49.171
					C5.593,22.058,27.995,0,55.531,0c27.539,0,49.943,22.058,49.943,49.171c0,0.545-0.014,1.087-0.035,1.628l16.967,28.918h-12.629
					v16.624c0,8.118-6.695,14.723-14.926,14.723H76.381V126z"/>
			</g>
		</g>
	</g>
	<g>
		<g>
			<path fill="#282D33" d="M57.548,99.91l-0.671-0.24c-18.738-6.726-31.294-24.408-31.245-44
				c0.045-19.595,12.688-37.221,31.459-43.861l0.672-0.237l0.671,0.241c18.728,6.727,31.282,24.413,31.239,44.011
				C89.619,75.418,76.979,93.04,58.22,99.673L57.548,99.91z M57.753,15.824C40.944,22.08,29.673,38.006,29.632,55.68
				c-0.044,17.671,11.147,33.646,27.926,39.979c16.797-6.25,28.067-22.173,28.116-39.845C85.713,38.139,74.521,22.158,57.753,15.824
				z"/>
		</g>
		<g>
			<rect x="55.656" y="13.695" transform="matrix(1 0.0024 -0.0024 1 0.1332 -0.1406)" fill="#282D33" width="4" height="81.559"/>
		</g>
		<g>
			<polygon fill="#282D33" points="76.912,128 55.519,128 55.549,95.348 59.549,95.352 59.522,124 76.912,124 			"/>
		</g>
		<g>
			
				<rect x="32.253" y="41.007" transform="matrix(0.7423 0.6701 -0.6701 0.7423 40.7226 -19.8652)" fill="#282D33" width="27.866" height="4"/>
		</g>
		<g>
			
				<rect x="23.731" y="64.943" transform="matrix(0.7421 0.6703 -0.6703 0.7421 55.8526 -11.2843)" fill="#282D33" width="37.722" height="4"/>
		</g>
		<g>
			
				<rect x="67.178" y="29.127" transform="matrix(0.6668 0.7452 -0.7452 0.6668 55.1399 -37.2041)" fill="#282D33" width="4" height="27.875"/>
		</g>
		<g>
			
				<rect x="70.656" y="48.155" transform="matrix(0.6665 0.7455 -0.7455 0.6665 74.1961 -31.8167)" fill="#282D33" width="4" height="37.718"/>
		</g>
	</g>
</g>
</svg>
