<svg xmlns="http://www.w3.org/2000/svg" viewBox="0 0 512 512"><defs><style>.cls-1{fill:#ff7045;}.cls-2{fill:#505560;}.cls-3{fill:#636978;}.cls-4{fill:#595f6b;}.cls-5{fill:#b3f2d7;}.cls-6{fill:#a3d8bf;}.cls-7{fill:#fff;}.cls-8{fill:#23a8fe;}.cls-9{fill:#f92814;}.cls-10{fill:#ffda45;}.cls-11{fill:#76d67b;}.cls-12{fill:#e5c438;}.cls-13{fill:#707789;}.cls-14{fill:#ffea92;}.cls-15{fill:#bc7c63;}.cls-16{fill:#a56956;}</style></defs><title>Development</title><g id="BULINE"><circle class="cls-1" cx="256" cy="256" r="256"/></g><g id="Icons"><rect class="cls-2" x="212.36" y="323.21" width="87.29" height="90.27"/><path class="cls-3" d="M486,77V308a34,34,0,0,1-34,34H60a34,34,0,0,1-34-34V77A34,34,0,0,1,60,43H452A34,34,0,0,1,486,77Z"/><path class="cls-4" d="M159.94,342H60a34,34,0,0,1-34-34V77A34,34,0,0,1,60,43h99.91a34,34,0,0,0-34,34V308A34,34,0,0,0,159.94,342Z"/><rect class="cls-3" x="175.13" y="407.74" width="161.75" height="36.75" rx="18.38"/><path class="cls-5" d="M486,77V303H26V77A34,34,0,0,1,60,43H452A34,34,0,0,1,486,77Z"/><path class="cls-6" d="M159.94,43a34,34,0,0,0-34,34V303H26V77A34,34,0,0,1,60,43Z"/><path class="cls-7" d="M442.64,93.9V256.65a26.14,26.14,0,0,1-26.13,26.13h-321a26.13,26.13,0,0,1-26.12-26.13V93.9A26.12,26.12,0,0,1,95.49,67.78h321A26.13,26.13,0,0,1,442.64,93.9Z"/><path class="cls-8" d="M442.64,93.9v15.23H69.37V93.9A26.12,26.12,0,0,1,95.49,67.78h321A26.13,26.13,0,0,1,442.64,93.9Z"/><circle class="cls-9" cx="103.37" cy="88.45" r="10.4"/><circle class="cls-10" cx="136.25" cy="88.45" r="10.4"/><circle class="cls-11" cx="169.12" cy="88.45" r="10.4"/><path class="cls-3" d="M226.87,213.09h58.84a0,0,0,0,1,0,0v37.17a29.42,29.42,0,0,1-29.42,29.42h0a29.42,29.42,0,0,1-29.42-29.42V213.09a0,0,0,0,1,0,0Z"/><path class="cls-10" d="M338.73,92.07a82.44,82.44,0,1,0-139,60,77.45,77.45,0,0,1,23.79,47.22,10.37,10.37,0,0,0,10.35,9.06h44.86a10.34,10.34,0,0,0,10.32-9.07,75.62,75.62,0,0,1,23.37-46.81A82.23,82.23,0,0,0,338.73,92.07Z"/><path class="cls-12" d="M290.46,188.61a76.18,76.18,0,0,0-2,10.66,10.34,10.34,0,0,1-10.31,9.07H233.28a10.39,10.39,0,0,1-10.35-9.07,77.3,77.3,0,0,0-23.78-47.21A82.41,82.41,0,0,1,215,20.4a82.28,82.28,0,0,0,7.37,111.92,77.45,77.45,0,0,1,23.79,47.23,10.38,10.38,0,0,0,10.34,9.06Z"/><rect class="cls-13" x="217.36" y="208.34" width="77.86" height="21.84" rx="10.92"/><rect class="cls-13" x="217.36" y="241.1" width="77.86" height="21.84" rx="10.92"/><ellipse class="cls-14" cx="290.22" cy="48.39" rx="14.65" ry="20.79" transform="translate(33.5 192.13) rotate(-38.71)"/><ellipse class="cls-14" cx="315.95" cy="88.9" rx="8.71" ry="12.36" transform="translate(-10.84 119.54) rotate(-21.07)"/><path class="cls-7" d="M251.27,109.17a.08.08,0,0,0,0,0A33.93,33.93,0,0,0,215.7,87.61,24,24,0,0,0,200,96.18a21.32,21.32,0,0,0-1.68,2.39,22.26,22.26,0,0,0-3.22,10.56,25.82,25.82,0,0,0,1.52,9.91,32.81,32.81,0,0,0,14.09,16.87,33.48,33.48,0,0,0,17.28,5c.72,0,1.43,0,2.13-.08a26.78,26.78,0,0,0,10.34-2.8v70h10.57V126.72A24.1,24.1,0,0,0,251.27,109.17ZM218,127.88h0c-.61-.31-1.21-.64-1.81-1a22.16,22.16,0,0,1-9.6-11.35,15.16,15.16,0,0,1-.92-5.36,8.77,8.77,0,0,1,.05-1,11.67,11.67,0,0,1,1.64-5.08,13.28,13.28,0,0,1,9.81-6,20.19,20.19,0,0,1,2.7-.19,22.88,22.88,0,0,1,11.8,3.46,23.26,23.26,0,0,1,7.92,7.79,19,19,0,0,1,1.69,3.56,13.27,13.27,0,0,1-.77,11.47C236.54,130.74,226.78,132.23,218,127.88Z"/><path class="cls-7" d="M315.24,109.13a22.14,22.14,0,0,0-3.18-10.56c-.15-.24-.3-.48-.46-.72l0,0a21.07,21.07,0,0,0-2.34-3l0,0c-8.34-8.8-23.46-10.15-36-2.56a32.72,32.72,0,0,0-14,16.83,24.38,24.38,0,0,0,.16,17.58V208h10.57V138a27.46,27.46,0,0,0,12.47,2.88,33.45,33.45,0,0,0,17.28-5C310,129.67,315.71,119.08,315.24,109.13Zm-21.05,17.74c-9.15,5.54-20.05,4.33-24.32-2.71a12,12,0,0,1-1.72-6.32,16.89,16.89,0,0,1,2.63-8.71,23.57,23.57,0,0,1,7.93-7.79c9.14-5.54,20-4.32,24.31,2.71a11.86,11.86,0,0,1,1.66,5.08C305.28,115.41,301.3,122.56,294.19,126.87Z"/><path class="cls-15" d="M429.23,444.49a255.81,255.81,0,0,1-346.46,0Z"/><path class="cls-16" d="M256,512a254.8,254.8,0,0,1-135.88-39H391.88A254.8,254.8,0,0,1,256,512Z"/></g></svg>